<svg xmlns="http://www.w3.org/2000/svg" version="1.1" xmlns:xlink="http://www.w3.org/1999/xlink" xmlns:svgjs="http://svgjs.dev/svgjs" viewBox="0 -0.31539999999999946 572.11669921875 408.36618125"><style>text.label { fill:gray; }</style><rect width="98.97265625" height="26.341796875" x="469.36767578125" y="0" fill="white" stroke="black"></rect><text x="480.20556640625" y="17.3779296875" font-family="Helvetica" font-size="12" svgjs:data="{&quot;leading&quot;:&quot;1.3&quot;}"><tspan dy="0" x="480.20556640625" svgjs:data="{&quot;newLined&quot;:true}">User Interface</tspan></text><path d="M397.00515859375 94.5889953125C402.47865859375 96.3478953125 407.95215859375 96.3439953125 413.42565859375003 94.5776953125M397.70845859375004 84.0806953125C403.32345859375005 85.53869531250001 408.75345859375 85.4486953125 413.85945859375005 84.1536953125M395.93435859375 89.5085953125C402.51145859375004 91.2204953125 408.91615859375 90.8068953125 415.24825859375005 89.4972953125M415.24825859375005 89.4972953125C415.24825859375005 95.0200953125 411.14005859375004 99.1283953125 405.61715859375005 99.1283953125C400.09435859375003 99.1283953125 395.95535859375 95.02019531250001 395.95535859375 89.4972953125C395.95535859375 83.97449531250001 400.09435859375003 79.8969953125 405.61715859375005 79.8969953125C411.14005859375004 79.8969953125 415.24825859375005 83.97449531250001 415.24825859375005 89.4972953125Z " fill="white" stroke="black"></path><svg width="2" height="0" style="opacity: 0; position: absolute; left: -100%; top: -100%; overflow: hidden;" focusable="false" aria-hidden="true"><path d="M296.9155328125 0L306.7533328125 10.5449L316.59113281249995 -0.30739999999999945M296.6611328125 -0.31539999999999946H316.6611328125V19.6846H296.6611328125Z "></path></svg><text x="417.22259140625005" y="93.7197265625" font-family="Helvetica" font-size="11" svgjs:data="{&quot;leading&quot;:&quot;1.3&quot;}"><tspan dy="0" x="417.22259140625005" svgjs:data="{&quot;newLined&quot;:true}">Web API</tspan></text><rect width="155.57421875" height="26.341796875" x="174.84326171875" y="152.68359375" fill="white" stroke="black"></rect><text x="184.24755859375" y="170.0615234375" font-family="Helvetica" font-size="12" svgjs:data="{&quot;leading&quot;:&quot;1.3&quot;}"><tspan dy="0" x="184.24755859375" svgjs:data="{&quot;newLined&quot;:true}">Search/Browser Engines</tspan></text><path d="M222.70914032095016 384.6747449843023C222.67714032095014 381.34044498430234 242.73444032095017 381.8126449843023 242.75314032095017 384.5719449843023C242.67704032095014 389.0088449843023 222.60994032095016 388.8152449843023 222.70914032095016 384.6747449843023ZM222.73854032095016 385.3208449843023C224.88924032095017 388.3811449843023 240.13324032095016 388.6931449843023 242.73854032095016 385.3208449843023V405.3208449843023C236.20534032095014 407.98924498430233 229.55204032095014 408.25664498430234 222.73854032095016 405.3208449843023Z " fill="white" stroke="black"></path><text x="243.77190564190025" y="399.0869140625" font-family="Helvetica" font-size="11" svgjs:data="{&quot;leading&quot;:&quot;1.3&quot;}"><tspan dy="0" x="243.77190564190025" svgjs:data="{&quot;newLined&quot;:true}">Database</tspan></text><rect width="106.525390625" height="26.341796875" x="465.59130859375" y="76.341796875" fill="white" stroke="black"></rect><text x="475.17041015625" y="93.7197265625" font-family="Helvetica" font-size="12" svgjs:data="{&quot;leading&quot;:&quot;1.3&quot;}"><tspan dy="0" x="475.17041015625" svgjs:data="{&quot;newLined&quot;:true}">Messaging Tool</tspan></text><rect width="146.123046875" height="26.341796875" x="233.599609375" y="305.3671875" fill="white" stroke="black"></rect><text x="240.5791015625" y="322.7451171875" font-family="Helvetica" font-size="12" svgjs:data="{&quot;leading&quot;:&quot;1.3&quot;}"><tspan dy="0" x="240.5791015625" svgjs:data="{&quot;newLined&quot;:true}">Recommender System</tspan></text><rect width="91.455078125" height="26.341796875" x="51.4296875" y="229.025390625" fill="white" stroke="black"></rect><text x="60.5205078125" y="246.4033203125" font-family="Helvetica" font-size="12" svgjs:data="{&quot;leading&quot;:&quot;1.3&quot;}"><tspan dy="0" x="60.5205078125" svgjs:data="{&quot;newLined&quot;:true}">Web Crawler</tspan></text><path d="M53.5710765625 323.6143859375C59.0445765625 325.3732859375 64.5180765625 325.3693859375 69.9915765625 323.6030859375M54.274376562499995 313.1060859375C59.8893765625 314.5640859375 65.3193765625 314.4740859375 70.42537656249999 313.1790859375M52.5002765625 318.5339859375C59.0773765625 320.2458859375 65.4820765625 319.8322859375 71.8141765625 318.5226859375M71.8141765625 318.5226859375C71.8141765625 324.0454859375 67.7059765625 328.1537859375 62.1830765625 328.1537859375C56.6602765625 328.1537859375 52.5212765625 324.0455859375 52.5212765625 318.5226859375C52.5212765625 312.9998859375 56.6602765625 308.9223859375 62.1830765625 308.9223859375C67.7059765625 308.9223859375 71.8141765625 312.9998859375 71.8141765625 318.5226859375Z " fill="white" stroke="black"></path><text x="74.74798203124999" y="322.7451171875" font-family="Helvetica" font-size="11" svgjs:data="{&quot;leading&quot;:&quot;1.3&quot;}"><tspan dy="0" x="74.74798203124999" svgjs:data="{&quot;newLined&quot;:true}">Site API</tspan></text><rect width="124.314453125" height="26.341796875" x="0" y="381.708984375" fill="white" stroke="black"></rect><text x="11.6142578125" y="399.0869140625" font-family="Helvetica" font-size="12" svgjs:data="{&quot;leading&quot;:&quot;1.3&quot;}"><tspan dy="0" x="11.6142578125" svgjs:data="{&quot;newLined&quot;:true}">Third Party Service</tspan></text><path d="M477.47705625 385.1952828125L487.31485625 395.7401828125L497.15265624999995 384.88788281250004M477.22265625 384.8798828125H497.22265625V404.8798828125H477.22265625Z " fill="white" stroke="black"></path><path d="M429.72265625 308.5380859375H445.56485625L445.50965625 312.7500859375L449.72265625 312.7198859375V328.5380859375H429.72265625ZM445.59565625 308.5590859375L449.72165625 312.6630859375 " fill="white" stroke="black"></path><path d="M125.73583984375 308.5380859375H141.57803984375L141.52283984375 312.7500859375L145.73583984375 312.7198859375V328.5380859375H125.73583984375ZM141.60883984375 308.5590859375L145.73483984375 312.6630859375 " fill="white" stroke="black"></path><path d="M296.9155328125 232.5116890625L306.7533328125 243.05658906250002L316.59113281249995 232.2042890625M296.6611328125 232.1962890625H316.6611328125V252.1962890625H296.6611328125Z " fill="white" stroke="black"></path><g><polyline points="477.7726220739352,26.341796875 403.59130859375,51.341796875 403.59130859375,79.5126953125" stroke-width="0.25" stroke="black" fill="none" marker-end="url(#SvgjsMarker1000)"></polyline><polyline points="407.59130859375,79.5126953125 407.59130859375,51.341796875 481.7726220739352,26.341796875" stroke-width="0.25" stroke="black" fill="none" stroke-dasharray="2" marker-end="url(#SvgjsMarker1001)"></polyline></g><defs><marker markerWidth="40" markerHeight="30" refX="20" refY="15" viewBox="0 0 40 30" orient="auto" id="SvgjsMarker1000"><path d="m 0 0 l 20 15 l -20 15 a 7.5 1 90 0 0 0 -30 z" fill="black" stroke-width="0.1" stroke="black"></path></marker><marker markerWidth="40" markerHeight="30" refX="20" refY="15" viewBox="0 0 40 30" orient="auto" id="SvgjsMarker1001"><path d="m 0 0 l 20 15 l -20 15 a 7.5 1 90 0 0 0 -30 z" fill="black" stroke-width="0.1" stroke="black"></path></marker><marker markerWidth="40" markerHeight="30" refX="20" refY="15" viewBox="0 0 40 30" orient="auto" id="SvgjsMarker1002"><path d="m 0 0 l 20 15 l -20 15 a 7.5 1 90 0 0 0 -30 z" fill="black" stroke-width="0.1" stroke="black"></path></marker><marker markerWidth="40" markerHeight="30" refX="20" refY="15" viewBox="0 0 40 30" orient="auto" id="SvgjsMarker1003"><path d="m 0 0 l 20 15 l -20 15 a 7.5 1 90 0 0 0 -30 z" fill="black" stroke-width="0.1" stroke="black"></path></marker><marker markerWidth="40" markerHeight="30" refX="20" refY="15" viewBox="0 0 40 30" orient="auto" id="SvgjsMarker1004"><path d="m 0 0 l 20 15 l -20 15 a 7.5 1 90 0 0 0 -30 z" fill="black" stroke-width="0.1" stroke="black"></path></marker><marker markerWidth="40" markerHeight="30" refX="20" refY="15" viewBox="0 0 40 30" orient="auto" id="SvgjsMarker1005"><path d="m 0 0 l 20 15 l -20 15 a 7.5 1 90 0 0 0 -30 z" fill="black" stroke-width="0.1" stroke="black"></path></marker><marker markerWidth="40" markerHeight="30" refX="20" refY="15" viewBox="0 0 40 30" orient="auto" id="SvgjsMarker1006"><path d="m 0 0 l 20 15 l -20 15 a 7.5 1 90 0 0 0 -30 z" fill="black" stroke-width="0.1" stroke="black"></path></marker><marker markerWidth="40" markerHeight="30" refX="20" refY="15" viewBox="0 0 40 30" orient="auto" id="SvgjsMarker1007"><path d="m 0 0 l 20 15 l -20 15 a 7.5 1 90 0 0 0 -30 z" fill="black" stroke-width="0.1" stroke="black"></path></marker><marker markerWidth="40" markerHeight="30" refX="20" refY="15" viewBox="0 0 40 30" orient="auto" id="SvgjsMarker1008"><path d="m 0 0 l 20 15 l -20 15 a 7.5 1 90 0 0 0 -30 z" fill="black" stroke-width="0.1" stroke="black"></path></marker><marker markerWidth="40" markerHeight="30" refX="20" refY="15" viewBox="0 0 40 30" orient="auto" id="SvgjsMarker1009"><path d="m 0 0 l 20 15 l -20 15 a 7.5 1 90 0 0 0 -30 z" fill="black" stroke-width="0.1" stroke="black"></path></marker><marker markerWidth="40" markerHeight="30" refX="20" refY="15" viewBox="0 0 40 30" orient="auto" id="SvgjsMarker1010"><path d="m 0 0 l 20 15 l -20 15 a 7.5 1 90 0 0 0 -30 z" fill="black" stroke-width="0.1" stroke="black"></path></marker><marker markerWidth="40" markerHeight="30" refX="20" refY="15" viewBox="0 0 40 30" orient="auto" id="SvgjsMarker1011"><path d="m 0 0 l 20 15 l -20 15 a 7.5 1 90 0 0 0 -30 z" fill="black" stroke-width="0.1" stroke="black"></path></marker><marker markerWidth="40" markerHeight="30" refX="20" refY="15" viewBox="0 0 40 30" orient="auto" id="SvgjsMarker1012"><path d="m 0 0 l 20 15 l -20 15 a 7.5 1 90 0 0 0 -30 z" fill="black" stroke-width="0.1" stroke="black"></path></marker><marker markerWidth="40" markerHeight="30" refX="20" refY="15" viewBox="0 0 40 30" orient="auto" id="SvgjsMarker1013"><path d="m 0 0 l 20 15 l -20 15 a 7.5 1 90 0 0 0 -30 z" fill="black" stroke-width="0.1" stroke="black"></path></marker><marker markerWidth="40" markerHeight="30" refX="20" refY="15" viewBox="0 0 40 30" orient="auto" id="SvgjsMarker1014"><path d="m 0 0 l 20 15 l -20 15 a 7.5 1 90 0 0 0 -30 z" fill="black" stroke-width="0.1" stroke="black"></path></marker><marker markerWidth="40" markerHeight="30" refX="20" refY="15" viewBox="0 0 40 30" orient="auto" id="SvgjsMarker1015"><path d="m 0 0 l 20 15 l -20 15 a 7.5 1 90 0 0 0 -30 z" fill="black" stroke-width="0.1" stroke="black"></path></marker><marker markerWidth="40" markerHeight="30" refX="20" refY="15" viewBox="0 0 40 30" orient="auto" id="SvgjsMarker1016"><path d="m 0 0 l 20 15 l -20 15 a 7.5 1 90 0 0 0 -30 z" fill="black" stroke-width="0.1" stroke="black"></path></marker><marker markerWidth="40" markerHeight="30" refX="20" refY="15" viewBox="0 0 40 30" orient="auto" id="SvgjsMarker1017"><path d="m 0 0 l 20 15 l -20 15 a 7.5 1 90 0 0 0 -30 z" fill="black" stroke-width="0.1" stroke="black"></path></marker><marker markerWidth="40" markerHeight="30" refX="20" refY="15" viewBox="0 0 40 30" orient="auto" id="SvgjsMarker1018"><path d="m 0 0 l 20 15 l -20 15 a 7.5 1 90 0 0 0 -30 z" fill="black" stroke-width="0.1" stroke="black"></path></marker><marker markerWidth="40" markerHeight="30" refX="20" refY="15" viewBox="0 0 40 30" orient="auto" id="SvgjsMarker1019"><path d="m 0 0 l 20 15 l -20 15 a 7.5 1 90 0 0 0 -30 z" fill="black" stroke-width="0.1" stroke="black"></path></marker><marker markerWidth="40" markerHeight="30" refX="20" refY="15" viewBox="0 0 40 30" orient="auto" id="SvgjsMarker1020"><path d="m 0 0 l 20 15 l -20 15 a 7.5 1 90 0 0 0 -30 z" fill="black" stroke-width="0.1" stroke="black"></path></marker><marker markerWidth="40" markerHeight="30" refX="20" refY="15" viewBox="0 0 40 30" orient="auto" id="SvgjsMarker1021"><path d="m 0 0 l 20 15 l -20 15 a 7.5 1 90 0 0 0 -30 z" fill="black" stroke-width="0.1" stroke="black"></path></marker></defs><g><polyline points="393.59130859375,92.00816239457774 250.63037109375,127.68359375 250.63037109375,152.68359375" stroke-width="0.25" stroke="black" fill="none" marker-end="url(#SvgjsMarker1002)"></polyline><polyline points="254.63037109375,152.68359375 254.63037109375,127.68359375 397.59130859375,92.00816239457774" stroke-width="0.25" stroke="black" fill="none" stroke-dasharray="2" marker-end="url(#SvgjsMarker1003)"></polyline></g><g><polyline points="231.98701439457173,179.025390625 196.599609375,204.025390625 196.599609375,242.1962890625 196.599609375,280.3671875 196.599609375,318.5380859375 196.599609375,356.708984375 221.78923727787932,384.8798828125" stroke-width="0.25" stroke="black" fill="none" marker-end="url(#SvgjsMarker1004)"></polyline><polyline points="225.78923727787932,384.8798828125 200.599609375,356.708984375 200.599609375,318.5380859375 200.599609375,280.3671875 200.599609375,242.1962890625 200.599609375,204.025390625 235.98701439457173,179.025390625" stroke-width="0.25" stroke="black" fill="none" stroke-dasharray="2" marker-end="url(#SvgjsMarker1005)"></polyline></g><g><polyline points="516.85400390625,26.341796875 516.85400390625,51.341796875 516.85400390625,76.341796875" stroke-width="0.25" stroke="black" fill="none" marker-end="url(#SvgjsMarker1006)"></polyline><polyline points="520.85400390625,76.341796875 520.85400390625,51.341796875 520.85400390625,26.341796875" stroke-width="0.25" stroke="black" fill="none" stroke-dasharray="2" marker-end="url(#SvgjsMarker1007)"></polyline></g><g><polyline points="360.33775845789523,331.708984375 462.22265625,356.708984375 480.6731640914818,384.8798828125" stroke-width="0.25" stroke="black" fill="none" marker-end="url(#SvgjsMarker1008)"></polyline></g><g><polyline points="489.84245311340726,384.8798828125 497.22265625,356.708984375 497.22265625,318.5380859375 497.22265625,280.3671875 497.22265625,242.1962890625 497.22265625,204.025390625 497.22265625,165.8544921875 497.22265625,127.68359375 415.59130859375,93.67839836214803" stroke-width="0.25" stroke="black" fill="none" marker-end="url(#SvgjsMarker1009)"></polyline></g><g><polyline points="414.5330283471207,99.5126953125 439.72265625,127.68359375 439.72265625,165.8544921875 439.72265625,204.025390625 439.72265625,242.1962890625 439.72265625,280.3671875 439.72265625,308.5380859375" stroke-width="0.25" stroke="black" fill="none" marker-end="url(#SvgjsMarker1010)"></polyline></g><g><polyline points="439.72265625,328.5380859375 439.72265625,356.708984375 242.73095703125,393.0358041087854" stroke-width="0.25" stroke="black" fill="none" marker-end="url(#SvgjsMarker1011)"></polyline></g><g><polyline points="110.46880732654479,255.3671875 135.73583984375,280.3671875 135.73583984375,308.5380859375" stroke-width="0.25" stroke="black" fill="none" marker-end="url(#SvgjsMarker1012)"></polyline></g><g><polyline points="135.73583984375,328.5380859375 135.73583984375,356.708984375 222.73095703125,390.9445405453514" stroke-width="0.25" stroke="black" fill="none" marker-end="url(#SvgjsMarker1013)"></polyline></g><g><polyline points="271.2737277929283,179.025390625 306.6611328125,204.025390625 306.6611328125,232.1962890625" stroke-width="0.25" stroke="black" fill="none" marker-end="url(#SvgjsMarker1014)"></polyline></g><g><polyline points="306.6611328125,252.1962890625 306.6611328125,280.3671875 306.6611328125,305.3671875" stroke-width="0.25" stroke="black" fill="none" marker-end="url(#SvgjsMarker1015)"></polyline></g><g><polyline points="304.6611328125,331.708984375 304.6611328125,356.708984375 240.73095703125,389.7167815437511" stroke-width="0.25" stroke="black" fill="none" marker-end="url(#SvgjsMarker1016)"></polyline><polyline points="244.73095703125,389.7167815437511 308.6611328125,356.708984375 308.6611328125,331.708984375" stroke-width="0.25" stroke="black" fill="none" stroke-dasharray="2" marker-end="url(#SvgjsMarker1017)"></polyline></g><g><polyline points="83.08044911731362,255.3671875 60.1572265625,280.3671875 60.1572265625,308.5380859375" stroke-width="0.25" stroke="black" fill="none" marker-end="url(#SvgjsMarker1018)"></polyline><polyline points="64.1572265625,308.5380859375 64.1572265625,280.3671875 87.08044911731362,255.3671875" stroke-width="0.25" stroke="black" fill="none" stroke-dasharray="2" marker-end="url(#SvgjsMarker1019)"></polyline></g><g><polyline points="60.1572265625,328.5380859375 60.1572265625,356.708984375 60.1572265625,381.708984375" stroke-width="0.25" stroke="black" fill="none" marker-end="url(#SvgjsMarker1020)"></polyline><polyline points="64.1572265625,381.708984375 64.1572265625,356.708984375 64.1572265625,328.5380859375" stroke-width="0.25" stroke="black" fill="none" stroke-dasharray="2" marker-end="url(#SvgjsMarker1021)"></polyline></g></svg>