<svg xmlns="http://www.w3.org/2000/svg" version="1.1" xmlns:xlink="http://www.w3.org/1999/xlink" xmlns:svgjs="http://svgjs.dev/svgjs" viewBox="0 0 1597.5 580"><rect width="100" height="40" x="680" y="0" fill="white" stroke="black"></rect><text x="700.05078125" y="26.20703125" svgjs:data="{&quot;leading&quot;:&quot;1.3&quot;}"><tspan dy="0" x="700.05078125" svgjs:data="{&quot;newLined&quot;:true}">Website</tspan></text><rect width="140" height="40" x="507.5" y="90" fill="white" stroke="black"></rect><text x="529.86328125" y="116.20703125" svgjs:data="{&quot;leading&quot;:&quot;1.3&quot;}"><tspan dy="0" x="529.86328125" svgjs:data="{&quot;newLined&quot;:true}">Web Crawler</tspan></text><rect width="170" height="40" x="867.5" y="90" fill="white" stroke="black"></rect><text x="899.8515625" y="116.20703125" svgjs:data="{&quot;leading&quot;:&quot;1.3&quot;}"><tspan dy="0" x="899.8515625" svgjs:data="{&quot;newLined&quot;:true}">User Interface</tspan></text><rect width="160" height="40" x="212.5" y="180" fill="white" stroke="black"></rect><text x="239.9453125" y="206.20703125" svgjs:data="{&quot;leading&quot;:&quot;1.3&quot;}"><tspan dy="0" x="239.9453125" svgjs:data="{&quot;newLined&quot;:true}">Search Engine</tspan></text><rect width="180" height="40" x="90" y="270" fill="white" stroke="black"></rect><text x="119.2890625" y="296.20703125" svgjs:data="{&quot;leading&quot;:&quot;1.3&quot;}"><tspan dy="0" x="119.2890625" svgjs:data="{&quot;newLined&quot;:true}">Category Search</tspan></text><rect width="120" height="40" x="0" y="360" fill="white" stroke="black"></rect><text x="28.02734375" y="386.20703125" svgjs:data="{&quot;leading&quot;:&quot;1.3&quot;}"><tspan dy="0" x="28.02734375" svgjs:data="{&quot;newLined&quot;:true}">By Seller</tspan></text><rect width="180" height="40" x="170" y="360" fill="white" stroke="black"></rect><text x="199.421875" y="386.20703125" svgjs:data="{&quot;leading&quot;:&quot;1.3&quot;}"><tspan dy="0" x="199.421875" svgjs:data="{&quot;newLined&quot;:true}">By Product Type</tspan></text><rect width="170" height="40" x="387.5" y="270" fill="white" stroke="black"></rect><text x="412.45703125" y="296.20703125" svgjs:data="{&quot;leading&quot;:&quot;1.3&quot;}"><tspan dy="0" x="412.45703125" svgjs:data="{&quot;newLined&quot;:true}">Keyword Search</tspan></text><rect width="130" height="40" x="1167.5" y="450" fill="white" stroke="black"></rect><text x="1192.921875" y="476.20703125" svgjs:data="{&quot;leading&quot;:&quot;1.3&quot;}"><tspan dy="0" x="1192.921875" svgjs:data="{&quot;newLined&quot;:true}">User Posts</tspan></text><rect width="150" height="40" x="585" y="540" fill="white" stroke="black"></rect><text x="612.2734375" y="566.20703125" svgjs:data="{&quot;leading&quot;:&quot;1.3&quot;}"><tspan dy="0" x="612.2734375" svgjs:data="{&quot;newLined&quot;:true}">Product Post</tspan></text><rect width="260" height="40" x="1037.5" y="540" fill="white" stroke="black"></rect><text x="1068.890625" y="566.20703125" svgjs:data="{&quot;leading&quot;:&quot;1.3&quot;}"><tspan dy="0" x="1068.890625" svgjs:data="{&quot;newLined&quot;:true}">Comment on Product Post</tspan></text><rect width="250" height="40" x="1347.5" y="540" fill="white" stroke="black"></rect><text x="1387.5625" y="566.20703125" svgjs:data="{&quot;leading&quot;:&quot;1.3&quot;}"><tspan dy="0" x="1387.5625" svgjs:data="{&quot;newLined&quot;:true}">Private Direct Message</tspan></text><rect width="150" height="40" x="877.5" y="450" fill="white" stroke="black"></rect><text x="908.8671875" y="476.20703125" svgjs:data="{&quot;leading&quot;:&quot;1.3&quot;}"><tspan dy="0" x="908.8671875" svgjs:data="{&quot;newLined&quot;:true}">User Profile</tspan></text><rect width="150" height="40" x="607.5" y="270" fill="white" stroke="black"></rect><text x="634.234375" y="296.20703125" svgjs:data="{&quot;leading&quot;:&quot;1.3&quot;}"><tspan dy="0" x="634.234375" svgjs:data="{&quot;newLined&quot;:true}">Data Storage</tspan></text><rect width="80" height="40" x="420" y="360" fill="white" stroke="black"></rect><text x="437.296875" y="386.20703125" svgjs:data="{&quot;leading&quot;:&quot;1.3&quot;}"><tspan dy="0" x="437.296875" svgjs:data="{&quot;newLined&quot;:true}">Cache</tspan></text><rect width="110" height="40" x="585" y="450" fill="white" stroke="black"></rect><text x="604.7890625" y="476.20703125" svgjs:data="{&quot;leading&quot;:&quot;1.3&quot;}"><tspan dy="0" x="604.7890625" svgjs:data="{&quot;newLined&quot;:true}">Database</tspan></text><rect width="210" height="40" x="987.5" y="270" fill="white" stroke="black"></rect><text x="1008.41796875" y="296.20703125" svgjs:data="{&quot;leading&quot;:&quot;1.3&quot;}"><tspan dy="0" x="1008.41796875" svgjs:data="{&quot;newLined&quot;:true}">Recommender System</tspan></text><rect width="160" height="40" x="757.5" y="360" fill="white" stroke="black"></rect><text x="782.25" y="386.20703125" svgjs:data="{&quot;leading&quot;:&quot;1.3&quot;}"><tspan dy="0" x="782.25" svgjs:data="{&quot;newLined&quot;:true}">Content-Based</tspan></text><rect width="160" height="40" x="1012.5" y="360" fill="white" stroke="black"></rect><text x="1043.33203125" y="386.20703125" svgjs:data="{&quot;leading&quot;:&quot;1.3&quot;}"><tspan dy="0" x="1043.33203125" svgjs:data="{&quot;newLined&quot;:true}">Collaborative</tspan></text><polygon points="372.5,230 307.5,221 242.5,230" fill="black" stroke="black"></polygon><polygon points="270,320 198.33333333333331,311 126.66666666666666,320" fill="black" stroke="black"></polygon><polygon points="1297.5,500 1232.5,491 1167.5,500" fill="black" stroke="black"></polygon><polygon points="1092.5,320 1040,311 987.5,320" fill="white" stroke="black"></polygon><polyline points="680,34.75409836065574 577.5,65 577.5,90" stroke="black" fill="none" marker-end="url(#SvgjsMarker1000)"></polyline><defs><marker markerWidth="14" markerHeight="14" refX="7" refY="7" viewBox="0 0 14 14" orient="auto" id="SvgjsMarker1000"><circle r="5" cx="7" cy="7" fill="black" stroke-width="2" stroke="black"></circle></marker><marker markerWidth="14" markerHeight="14" refX="7" refY="7" viewBox="0 0 14 14" orient="auto" id="SvgjsMarker1001"><circle r="5" cx="7" cy="7" fill="black" stroke-width="2" stroke="black"></circle></marker><marker markerWidth="14" markerHeight="14" refX="7" refY="7" viewBox="0 0 14 14" orient="auto" id="SvgjsMarker1002"><circle r="5" cx="7" cy="7" fill="black" stroke-width="2" stroke="black"></circle></marker><marker markerWidth="14" markerHeight="14" refX="7" refY="7" viewBox="0 0 14 14" orient="auto" id="SvgjsMarker1003"><circle r="5" cx="7" cy="7" fill="black" stroke-width="2" stroke="black"></circle></marker><marker markerWidth="14" markerHeight="14" refX="7" refY="7" viewBox="0 0 14 14" orient="auto" id="SvgjsMarker1004"><circle r="5" cx="7" cy="7" fill="black" stroke-width="2" stroke="black"></circle></marker><marker markerWidth="14" markerHeight="14" refX="7" refY="7" viewBox="0 0 14 14" orient="auto" id="SvgjsMarker1005"><circle r="5" cx="7" cy="7" fill="white" stroke-width="2" stroke="black"></circle></marker><marker markerWidth="14" markerHeight="14" refX="7" refY="7" viewBox="0 0 14 14" orient="auto" id="SvgjsMarker1006"><circle r="5" cx="7" cy="7" fill="black" stroke-width="2" stroke="black"></circle></marker><marker markerWidth="14" markerHeight="14" refX="7" refY="7" viewBox="0 0 14 14" orient="auto" id="SvgjsMarker1007"><circle r="5" cx="7" cy="7" fill="black" stroke-width="2" stroke="black"></circle></marker><marker markerWidth="14" markerHeight="14" refX="7" refY="7" viewBox="0 0 14 14" orient="auto" id="SvgjsMarker1008"><circle r="5" cx="7" cy="7" fill="white" stroke-width="2" stroke="black"></circle></marker><marker markerWidth="14" markerHeight="14" refX="7" refY="7" viewBox="0 0 14 14" orient="auto" id="SvgjsMarker1009"><polygon points="0,14 7,7 0,0 2,7" fill="black" stroke-width="1" stroke="black"></polygon></marker><marker markerWidth="14" markerHeight="14" refX="7" refY="7" viewBox="0 0 14 14" orient="auto" id="SvgjsMarker1010"><polygon points="0,14 7,7 0,0 2,7" fill="black" stroke-width="1" stroke="black"></polygon></marker><marker markerWidth="14" markerHeight="14" refX="7" refY="7" viewBox="0 0 14 14" orient="auto" id="SvgjsMarker1011"><polygon points="0,14 7,7 0,0 2,7" fill="black" stroke-width="1" stroke="black"></polygon></marker><marker markerWidth="14" markerHeight="14" refX="7" refY="7" viewBox="0 0 14 14" orient="auto" id="SvgjsMarker1012"><polygon points="0,14 7,7 0,0 2,7" fill="black" stroke-width="1" stroke="black"></polygon></marker><marker markerWidth="14" markerHeight="14" refX="7" refY="7" viewBox="0 0 14 14" orient="auto" id="SvgjsMarker1013"><polygon points="0,14 7,7 0,0 2,7" fill="black" stroke-width="1" stroke="black"></polygon></marker><marker markerWidth="14" markerHeight="14" refX="7" refY="7" viewBox="0 0 14 14" orient="auto" id="SvgjsMarker1014"><polygon points="0,14 7,7 0,0 2,7" fill="black" stroke-width="1" stroke="black"></polygon></marker><marker markerWidth="14" markerHeight="14" refX="7" refY="7" viewBox="0 0 14 14" orient="auto" id="SvgjsMarker1015"><polygon points="0,14 7,7 0,0 2,7" fill="black" stroke-width="1" stroke="black"></polygon></marker><marker markerWidth="14" markerHeight="14" refX="7" refY="7" viewBox="0 0 14 14" orient="auto" id="SvgjsMarker1016"><polygon points="0,14 7,7 0,0 2,7" fill="black" stroke-width="1" stroke="black"></polygon></marker></defs><polyline points="126.66666666666666,320 60,335 60,360" stroke="black" fill="none"></polyline><polyline points="215.55555555555554,320 260,335 260,360" stroke="black" fill="none"></polyline><polyline points="242.5,230 180,245 180,270" stroke="black" fill="none"></polyline><polyline points="372.5,230 472.5,245 472.5,270" stroke="black" fill="none"></polyline><polyline points="867.5,115.79545454545455 292.5,155 292.5,180" stroke="black" fill="none" marker-end="url(#SvgjsMarker1001)"></polyline><polyline points="1167.5,500 945,515 735,548.1578947368421" stroke="black" fill="none"></polyline><polyline points="1203.611111111111,500 1167.5,515 1167.5,540" stroke="black" fill="none"></polyline><polyline points="1297.5,500 1472.5,515 1472.5,540" stroke="black" fill="none"></polyline><polyline points="1037.5,123.66071428571429 1232.5,155 1232.5,200 1232.5,245 1232.5,290 1232.5,335 1232.5,380 1232.5,425 1232.5,450" stroke="black" fill="none" marker-end="url(#SvgjsMarker1002)"></polyline><polyline points="952.5,130 952.5,155 952.5,200 952.5,245 952.5,290 952.5,335 952.5,380 952.5,425 952.5,450" stroke="black" fill="none" marker-end="url(#SvgjsMarker1003)"></polyline><polyline points="780,30.1123595505618 952.5,65 952.5,90" stroke="black" fill="none" marker-end="url(#SvgjsMarker1004)"></polyline><polyline points="634.7222222222222,310 575,335 500,364.3478260869565" stroke="black" fill="none" marker-end="url(#SvgjsMarker1005)"></polyline><polyline points="700.2777777777778,310 722.5,335 722.5,380 722.5,425 676.6666666666666,450" stroke="black" fill="none" marker-end="url(#SvgjsMarker1006)"></polyline><polyline points="708.8888888888889,40 682.5,65 682.5,110 682.5,155 682.5,200 682.5,245 682.5,270" stroke="black" fill="none" marker-end="url(#SvgjsMarker1007)"></polyline><polyline points="987.5,320 837.5,335 837.5,360" stroke="black" fill="none"></polyline><polyline points="1092.5,320 1092.5,335 1092.5,360" stroke="black" fill="none"></polyline><polyline points="780,26.20689655172414 1092.5,65 1092.5,110 1092.5,155 1092.5,200 1092.5,245 1092.5,270" stroke="black" fill="none" marker-end="url(#SvgjsMarker1008)"></polyline><polyline points="270,320 385,335 385,380 385,425 585,460.29411764705884" stroke="black" fill="none" stroke-dasharray="4" marker-end="url(#SvgjsMarker1009)"></polyline><polyline points="555.8333333333334,310 660,335 660,380 660,425 648.8888888888889,450" stroke="black" fill="none" stroke-dasharray="4" marker-end="url(#SvgjsMarker1010)"></polyline><polyline points="270,320 422.5,335 443.3333333333333,360" stroke="black" fill="none" stroke-dasharray="4" marker-end="url(#SvgjsMarker1011)"></polyline><polyline points="466.94444444444446,310 460,335 460,360" stroke="black" fill="none" stroke-dasharray="4" marker-end="url(#SvgjsMarker1012)"></polyline><polyline points="460,400 460,425 585,456.25" stroke="black" fill="none" stroke-dasharray="4" marker-end="url(#SvgjsMarker1013)"></polyline><polyline points="837.5,400 837.5,425 695,457.46835443037975" stroke="black" fill="none" stroke-dasharray="4" marker-end="url(#SvgjsMarker1014)"></polyline><polyline points="640,490 640,515 651.1111111111111,540" stroke="black" fill="none" stroke-dasharray="4" marker-end="url(#SvgjsMarker1015)"></polyline><polyline points="1092.5,400 1092.5,425 1014.7222222222222,450" stroke="black" fill="none" stroke-dasharray="4" marker-end="url(#SvgjsMarker1016)"></polyline></svg>