<?xml version="1.0" encoding="UTF-8" standalone="no"?><svg xmlns="http://www.w3.org/2000/svg" xmlns:xlink="http://www.w3.org/1999/xlink" contentScriptType="application/ecmascript" contentStyleType="text/css" height="782px" preserveAspectRatio="none" style="width:846px;height:782px;" version="1.1" viewBox="0 0 846 782" width="846px" zoomAndPan="magnify"><defs/><g><rect fill="#FFFFFF" height="614" style="stroke: #444444; stroke-width: 1.0; stroke-dasharray: 7.0,7.0;" width="325" x="22" y="157"/><text fill="#000000" font-family="sans-serif" font-size="14" font-style="italic" lengthAdjust="spacingAndGlyphs" textLength="80" x="144.5" y="172.5352">«boundary»</text><text fill="#444444" font-family="sans-serif" font-size="16" font-weight="bold" lengthAdjust="spacingAndGlyphs" textLength="168" x="100.5" y="190.957">Internet Marketplace</text><text fill="#444444" font-family="sans-serif" font-size="12" font-weight="bold" lengthAdjust="spacingAndGlyphs" textLength="53" x="158" y="205.9336">[System]</text><rect fill="#438DD5" height="116.5742" style="stroke: #3C7FC0; stroke-width: 1.5;" width="193" x="137.5" y="225"/><text fill="#FFFFFF" font-family="sans-serif" font-size="12" font-style="italic" lengthAdjust="spacingAndGlyphs" textLength="65" x="201.5" y="246.6016">«container»</text><text fill="#FFFFFF" font-family="sans-serif" font-size="16" font-weight="bold" lengthAdjust="spacingAndGlyphs" textLength="63" x="202.5" y="264.6016">Website</text><text fill="#FFFFFF" font-family="sans-serif" font-size="12" font-style="italic" lengthAdjust="spacingAndGlyphs" textLength="161" x="153.5" y="279.5781">[HTML, CSS, light JavaScript]</text><text fill="#FFFFFF" font-family="sans-serif" font-size="14" lengthAdjust="spacingAndGlyphs" textLength="0" x="236" y="295.6445"/><text fill="#FFFFFF" font-family="sans-serif" font-size="14" lengthAdjust="spacingAndGlyphs" textLength="169" x="147.5" y="312.1328">Display Data and Provide</text><text fill="#FFFFFF" font-family="sans-serif" font-size="14" lengthAdjust="spacingAndGlyphs" textLength="109" x="179.5" y="328.6211">Search Features</text><rect fill="#438DD5" height="100.0859" style="stroke: #3C7FC0; stroke-width: 1.5;" width="136" x="38" y="464"/><text fill="#FFFFFF" font-family="sans-serif" font-size="12" font-style="italic" lengthAdjust="spacingAndGlyphs" textLength="65" x="73.5" y="485.6016">«container»</text><text fill="#FFFFFF" font-family="sans-serif" font-size="16" font-weight="bold" lengthAdjust="spacingAndGlyphs" textLength="116" x="48" y="503.6016">Search Engine</text><text fill="#FFFFFF" font-family="sans-serif" font-size="12" font-style="italic" lengthAdjust="spacingAndGlyphs" textLength="82" x="65" y="518.5781">[Elasticsearch]</text><text fill="#FFFFFF" font-family="sans-serif" font-size="14" lengthAdjust="spacingAndGlyphs" textLength="0" x="108" y="534.6445"/><text fill="#FFFFFF" font-family="sans-serif" font-size="14" lengthAdjust="spacingAndGlyphs" textLength="105" x="53.5" y="551.1328">Perform Search</text><rect fill="#438DD5" height="100.0859" style="stroke: #3C7FC0; stroke-width: 1.5;" width="121" x="209.5" y="464"/><text fill="#FFFFFF" font-family="sans-serif" font-size="12" font-style="italic" lengthAdjust="spacingAndGlyphs" textLength="65" x="237.5" y="485.6016">«container»</text><text fill="#FFFFFF" font-family="sans-serif" font-size="16" font-weight="bold" lengthAdjust="spacingAndGlyphs" textLength="101" x="219.5" y="503.6016">Web Crawler</text><text fill="#FFFFFF" font-family="sans-serif" font-size="12" font-style="italic" lengthAdjust="spacingAndGlyphs" textLength="46" x="247" y="518.5781">[Python]</text><text fill="#FFFFFF" font-family="sans-serif" font-size="14" lengthAdjust="spacingAndGlyphs" textLength="0" x="272" y="534.6445"/><text fill="#FFFFFF" font-family="sans-serif" font-size="14" lengthAdjust="spacingAndGlyphs" textLength="74" x="233" y="551.1328">Crawl Data</text><rect fill="#438DD5" height="100.0859" style="stroke: #3C7FC0; stroke-width: 1.5;" width="151" x="89.5" y="655"/><text fill="#FFFFFF" font-family="sans-serif" font-size="12" font-style="italic" lengthAdjust="spacingAndGlyphs" textLength="65" x="132.5" y="676.6016">«container»</text><text fill="#FFFFFF" font-family="sans-serif" font-size="16" font-weight="bold" lengthAdjust="spacingAndGlyphs" textLength="75" x="127.5" y="694.6016">Database</text><text fill="#FFFFFF" font-family="sans-serif" font-size="12" font-style="italic" lengthAdjust="spacingAndGlyphs" textLength="62" x="134" y="709.5781">[MongoDB]</text><text fill="#FFFFFF" font-family="sans-serif" font-size="14" lengthAdjust="spacingAndGlyphs" textLength="0" x="167" y="725.6445"/><text fill="#FFFFFF" font-family="sans-serif" font-size="14" lengthAdjust="spacingAndGlyphs" textLength="131" x="99.5" y="742.1328">Store Crawled Data</text><rect fill="#08427B" height="85.9531" style="stroke: #073B6F; stroke-width: 1.5;" width="99" x="104.5" y="8"/><text fill="#FFFFFF" font-family="sans-serif" font-size="12" font-style="italic" lengthAdjust="spacingAndGlyphs" textLength="52" x="128" y="29.6016">«person»</text><text fill="#FFFFFF" font-family="sans-serif" font-size="16" font-weight="bold" lengthAdjust="spacingAndGlyphs" textLength="79" x="114.5" y="47.6016">Customer</text><text fill="#FFFFFF" font-family="sans-serif" font-size="14" lengthAdjust="spacingAndGlyphs" textLength="0" x="156" y="64.5117"/><text fill="#FFFFFF" font-family="sans-serif" font-size="14" lengthAdjust="spacingAndGlyphs" textLength="0" x="156" y="81"/><rect fill="#08427B" height="85.9531" style="stroke: #073B6F; stroke-width: 1.5;" width="112" x="258" y="8"/><text fill="#FFFFFF" font-family="sans-serif" font-size="12" font-style="italic" lengthAdjust="spacingAndGlyphs" textLength="52" x="288" y="29.6016">«person»</text><text fill="#FFFFFF" font-family="sans-serif" font-size="16" font-weight="bold" lengthAdjust="spacingAndGlyphs" textLength="44" x="292" y="47.6016">Seller</text><text fill="#FFFFFF" font-family="sans-serif" font-size="14" lengthAdjust="spacingAndGlyphs" textLength="0" x="316" y="64.5117"/><text fill="#FFFFFF" font-family="sans-serif" font-size="14" lengthAdjust="spacingAndGlyphs" textLength="92" x="268" y="81">User as Seller</text><rect fill="#999999" height="52.9766" style="stroke: #8A8A8A; stroke-width: 1.5;" width="160" x="363" y="678.5"/><text fill="#FFFFFF" font-family="sans-serif" font-size="12" font-style="italic" lengthAdjust="spacingAndGlyphs" textLength="105" x="390.5" y="700.1016">«external_system»</text><text fill="#FFFFFF" font-family="sans-serif" font-size="16" font-weight="bold" lengthAdjust="spacingAndGlyphs" textLength="140" x="373" y="718.1016">Third Party Seller</text><rect fill="#999999" height="71.8203" style="stroke: #8A8A8A; stroke-width: 1.5;" width="218" x="617" y="478"/><text fill="#FFFFFF" font-family="sans-serif" font-size="12" font-style="italic" lengthAdjust="spacingAndGlyphs" textLength="105" x="673.5" y="499.6016">«external_system»</text><text fill="#FFFFFF" font-family="sans-serif" font-size="16" font-weight="bold" lengthAdjust="spacingAndGlyphs" textLength="193" x="627" y="517.6016">Third Party Transaction</text><text fill="#FFFFFF" font-family="sans-serif" font-size="16" font-weight="bold" lengthAdjust="spacingAndGlyphs" textLength="57" x="697.5" y="536.4453">Service</text><path d="M147.5,94.25 C146.52,109.24 146.95,126.08 151,141 C158.56,168.81 173.11,196.75 187.95,220.37 " fill="none" id="user_c-&gt;website" style="stroke: #666666; stroke-width: 1.0;"/><polygon fill="#666666" points="190.72,224.72,189.2799,214.977,188.043,220.497,182.5231,219.2601,190.72,224.72" style="stroke: #666666; stroke-width: 1.0;"/><text fill="#666666" font-family="sans-serif" font-size="13" font-weight="bold" lengthAdjust="spacingAndGlyphs" textLength="118" x="152" y="137.5684">Look Up Products</text><path d="M299.42,94.01 C287.21,129.2 269.6,179.94 255.72,219.91 " fill="none" id="user_s-&gt;website" style="stroke: #666666; stroke-width: 1.0;"/><polygon fill="#666666" points="254.05,224.73,260.7889,217.5476,255.6954,220.0085,253.2345,214.915,254.05,224.73" style="stroke: #666666; stroke-width: 1.0;"/><text fill="#666666" font-family="sans-serif" font-size="13" font-weight="bold" lengthAdjust="spacingAndGlyphs" textLength="126" x="289" y="137.5684">Post Own Products</text><path d="M297.23,342.03 C305.85,351.53 314.09,361.67 321,372 C387.59,471.53 423.52,612.09 436.87,673.4 " fill="none" id="website-&gt;third_party" style="stroke: #666666; stroke-width: 1.0;"/><polygon fill="#666666" points="437.94,678.38,439.9789,668.7445,436.8992,673.4895,432.1541,670.4098,437.94,678.38" style="stroke: #666666; stroke-width: 1.0;"/><text fill="#666666" font-family="sans-serif" font-size="13" font-weight="bold" lengthAdjust="spacingAndGlyphs" textLength="77" x="440.5" y="505.0684">Redirect To</text><text fill="#666666" font-family="sans-serif" font-size="12" font-style="italic" lengthAdjust="spacingAndGlyphs" textLength="140" x="407" y="519.4121">[Purchasable Product on</text><text fill="#666666" font-family="sans-serif" font-size="12" font-style="italic" lengthAdjust="spacingAndGlyphs" textLength="92" x="433" y="533.5449">Third Party Site]</text><path d="M287.99,564.05 C297.02,584.38 309.4,607.3 325,625 C342.8,645.2 366.89,662.55 388.66,675.79 " fill="none" id="crawler-&gt;third_party" style="stroke: #666666; stroke-width: 1.0;"/><polygon fill="#666666" points="392.98,678.39,387.3087,670.3379,388.6888,675.8238,383.2028,677.2039,392.98,678.39" style="stroke: #666666; stroke-width: 1.0;"/><text fill="#666666" font-family="sans-serif" font-size="13" font-weight="bold" lengthAdjust="spacingAndGlyphs" textLength="38" x="348.5" y="607.5684">Crawl</text><text fill="#666666" font-family="sans-serif" font-size="12" font-style="italic" lengthAdjust="spacingAndGlyphs" textLength="83" x="326" y="621.9121">[Product Data]</text><path d="M232.91,564.17 C226.26,573.84 219.66,584.07 214,594 C203.97,611.6 194.52,631.63 186.64,649.74 " fill="none" id="crawler-&gt;db" style="stroke: #666666; stroke-width: 1.0;"/><polygon fill="#666666" points="184.46,654.79,191.6894,648.1015,186.4348,650.1965,184.3398,644.9419,184.46,654.79" style="stroke: #666666; stroke-width: 1.0;"/><text fill="#666666" font-family="sans-serif" font-size="13" font-weight="bold" lengthAdjust="spacingAndGlyphs" textLength="69" x="215" y="614.5684">Store Data</text><path d="M97.33,564.05 C95.76,583.5 96.35,605.77 103,625 C106.03,633.76 110.47,642.29 115.61,650.3 " fill="none" id="search_engine-&gt;db" style="stroke: #666666; stroke-width: 1.0;"/><polygon fill="#666666" points="118.53,654.7,116.889,644.9888,115.7664,650.5332,110.2221,649.4105,118.53,654.7" style="stroke: #666666; stroke-width: 1.0;"/><text fill="#666666" font-family="sans-serif" font-size="13" font-weight="bold" lengthAdjust="spacingAndGlyphs" textLength="69" x="104" y="614.5684">Read Data</text><path d="M201.7,342.16 C181.57,378.09 155.84,424.02 136.14,459.2 " fill="none" id="website-&gt;search_engine" style="stroke: #666666; stroke-width: 1.0;"/><polygon fill="#666666" points="133.52,463.88,141.4104,457.9858,135.9652,459.5187,134.4323,454.0735,133.52,463.88" style="stroke: #666666; stroke-width: 1.0;"/><text fill="#666666" font-family="sans-serif" font-size="13" font-weight="bold" lengthAdjust="spacingAndGlyphs" textLength="129" x="183" y="408.0684">Get Data to Display</text><path d="M330.77,318.61 C371.74,333.83 419.67,352.67 462,372 C531.53,403.76 608.33,445.58 661.08,475.41 " fill="none" id="website-&gt;third_party_transaction" style="stroke: #666666; stroke-width: 1.0;"/><polygon fill="#666666" points="665.48,477.9,659.6251,469.9804,661.1309,475.4331,655.6781,476.9389,665.48,477.9" style="stroke: #666666; stroke-width: 1.0;"/><text fill="#666666" font-family="sans-serif" font-size="13" font-weight="bold" lengthAdjust="spacingAndGlyphs" textLength="115" x="592.5" y="385.5684">Redirect Users to</text><text fill="#666666" font-family="sans-serif" font-size="13" font-weight="bold" lengthAdjust="spacingAndGlyphs" textLength="140" x="580" y="400.8789">External Transaction</text><text fill="#666666" font-family="sans-serif" font-size="13" font-weight="bold" lengthAdjust="spacingAndGlyphs" textLength="48" x="628" y="416.1895">Service</text><text fill="#666666" font-family="sans-serif" font-size="12" font-style="italic" lengthAdjust="spacingAndGlyphs" textLength="136" x="584" y="430.5332">[User-Generated Posts]</text></g></svg>