<?xml version="1.0" encoding="UTF-8" standalone="no"?><svg xmlns="http://www.w3.org/2000/svg" xmlns:xlink="http://www.w3.org/1999/xlink" contentScriptType="application/ecmascript" contentStyleType="text/css" height="491px" preserveAspectRatio="none" style="width:1360px;height:491px;" version="1.1" viewBox="0 0 1360 491" width="1360px" zoomAndPan="magnify"><defs/><g><text fill="#000000" font-family="Courier" font-size="14" font-weight="bold" lengthAdjust="spacingAndGlyphs" textLength="176" x="590.5" y="22.9951">User Search and Browse</text><rect fill="#FFFFFF" height="323.2656" style="stroke: #000000; stroke-width: 2.0;" width="1194" x="13" y="81.5938"/><rect fill="#FFFFFF" height="160.4688" style="stroke: none; stroke-width: 1.0;" width="1194" x="13" y="244.3906"/><line style="stroke: #383838; stroke-width: 1.0; stroke-dasharray: 5.0,5.0;" x1="86" x2="86" y1="64.5938" y2="450.9922"/><line style="stroke: #383838; stroke-width: 1.0; stroke-dasharray: 5.0,5.0;" x1="206" x2="206" y1="64.5938" y2="450.9922"/><line style="stroke: #383838; stroke-width: 1.0; stroke-dasharray: 5.0,5.0;" x1="326" x2="326" y1="64.5938" y2="450.9922"/><line style="stroke: #383838; stroke-width: 1.0; stroke-dasharray: 5.0,5.0;" x1="450" x2="450" y1="64.5938" y2="450.9922"/><line style="stroke: #383838; stroke-width: 1.0; stroke-dasharray: 5.0,5.0;" x1="570" x2="570" y1="64.5938" y2="450.9922"/><line style="stroke: #383838; stroke-width: 1.0; stroke-dasharray: 5.0,5.0;" x1="702" x2="702" y1="64.5938" y2="450.9922"/><line style="stroke: #383838; stroke-width: 1.0; stroke-dasharray: 5.0,5.0;" x1="990" x2="990" y1="64.5938" y2="450.9922"/><line style="stroke: #383838; stroke-width: 1.0; stroke-dasharray: 5.0,5.0;" x1="1118" x2="1118" y1="64.5938" y2="450.9922"/><line style="stroke: #383838; stroke-width: 1.0; stroke-dasharray: 5.0,5.0;" x1="1278" x2="1278" y1="64.5938" y2="450.9922"/><rect fill="#F8F8F8" height="30.2969" style="stroke: #383838; stroke-width: 1.5;" width="126" x="23" y="33.2969"/><text fill="#000000" font-family="Courier" font-size="14" lengthAdjust="spacingAndGlyphs" textLength="112" x="30" y="53.292">User Interface</text><rect fill="#F8F8F8" height="30.2969" style="stroke: #383838; stroke-width: 1.5;" width="126" x="23" y="449.9922"/><text fill="#000000" font-family="Courier" font-size="14" lengthAdjust="spacingAndGlyphs" textLength="112" x="30" y="469.9873">User Interface</text><rect fill="#F8F8F8" height="30.2969" style="stroke: #383838; stroke-width: 1.5;" width="94" x="159" y="33.2969"/><text fill="#000000" font-family="Courier" font-size="14" lengthAdjust="spacingAndGlyphs" textLength="80" x="166" y="53.292">User Posts</text><rect fill="#F8F8F8" height="30.2969" style="stroke: #383838; stroke-width: 1.5;" width="94" x="159" y="449.9922"/><text fill="#000000" font-family="Courier" font-size="14" lengthAdjust="spacingAndGlyphs" textLength="80" x="166" y="469.9873">User Posts</text><rect fill="#F8F8F8" height="30.2969" style="stroke: #383838; stroke-width: 1.5;" width="126" x="263" y="33.2969"/><text fill="#000000" font-family="Courier" font-size="14" lengthAdjust="spacingAndGlyphs" textLength="112" x="270" y="53.292">Messaging Tool</text><rect fill="#F8F8F8" height="30.2969" style="stroke: #383838; stroke-width: 1.5;" width="126" x="263" y="449.9922"/><text fill="#000000" font-family="Courier" font-size="14" lengthAdjust="spacingAndGlyphs" textLength="112" x="270" y="469.9873">Messaging Tool</text><rect fill="#F8F8F8" height="30.2969" style="stroke: #383838; stroke-width: 1.5;" width="102" x="399" y="33.2969"/><text fill="#000000" font-family="Courier" font-size="14" lengthAdjust="spacingAndGlyphs" textLength="88" x="406" y="53.292">Web Crawler</text><rect fill="#F8F8F8" height="30.2969" style="stroke: #383838; stroke-width: 1.5;" width="102" x="399" y="449.9922"/><text fill="#000000" font-family="Courier" font-size="14" lengthAdjust="spacingAndGlyphs" textLength="88" x="406" y="469.9873">Web Crawler</text><rect fill="#F8F8F8" height="30.2969" style="stroke: #383838; stroke-width: 1.5;" width="118" x="511" y="33.2969"/><text fill="#000000" font-family="Courier" font-size="14" lengthAdjust="spacingAndGlyphs" textLength="104" x="518" y="53.292">Search Engine</text><rect fill="#F8F8F8" height="30.2969" style="stroke: #383838; stroke-width: 1.5;" width="118" x="511" y="449.9922"/><text fill="#000000" font-family="Courier" font-size="14" lengthAdjust="spacingAndGlyphs" textLength="104" x="518" y="469.9873">Search Engine</text><rect fill="#F8F8F8" height="30.2969" style="stroke: #383838; stroke-width: 1.5;" width="126" x="639" y="33.2969"/><text fill="#000000" font-family="Courier" font-size="14" lengthAdjust="spacingAndGlyphs" textLength="112" x="646" y="53.292">Browser Engine</text><rect fill="#F8F8F8" height="30.2969" style="stroke: #383838; stroke-width: 1.5;" width="126" x="639" y="449.9922"/><text fill="#000000" font-family="Courier" font-size="14" lengthAdjust="spacingAndGlyphs" textLength="112" x="646" y="469.9873">Browser Engine</text><rect fill="#F8F8F8" height="30.2969" style="stroke: #383838; stroke-width: 1.5;" width="78" x="951" y="33.2969"/><text fill="#000000" font-family="Courier" font-size="14" lengthAdjust="spacingAndGlyphs" textLength="64" x="958" y="53.292">Database</text><rect fill="#F8F8F8" height="30.2969" style="stroke: #383838; stroke-width: 1.5;" width="78" x="951" y="449.9922"/><text fill="#000000" font-family="Courier" font-size="14" lengthAdjust="spacingAndGlyphs" textLength="64" x="958" y="469.9873">Database</text><rect fill="#F8F8F8" height="30.2969" style="stroke: #383838; stroke-width: 1.5;" width="158" x="1039" y="33.2969"/><text fill="#000000" font-family="Courier" font-size="14" lengthAdjust="spacingAndGlyphs" textLength="144" x="1046" y="53.292">Recommender System</text><rect fill="#F8F8F8" height="30.2969" style="stroke: #383838; stroke-width: 1.5;" width="158" x="1039" y="449.9922"/><text fill="#000000" font-family="Courier" font-size="14" lengthAdjust="spacingAndGlyphs" textLength="144" x="1046" y="469.9873">Recommender System</text><rect fill="#F8F8F8" height="30.2969" style="stroke: #383838; stroke-width: 1.5;" width="142" x="1207" y="33.2969"/><text fill="#000000" font-family="Courier" font-size="14" lengthAdjust="spacingAndGlyphs" textLength="128" x="1214" y="53.292">Third Party Site</text><rect fill="#F8F8F8" height="30.2969" style="stroke: #383838; stroke-width: 1.5;" width="142" x="1207" y="449.9922"/><text fill="#000000" font-family="Courier" font-size="14" lengthAdjust="spacingAndGlyphs" textLength="128" x="1214" y="469.9873">Third Party Site</text><path d="M13,81.5938 L82,81.5938 L82,88.5938 L72,98.5938 L13,98.5938 L13,81.5938 " fill="#EEEEEE" style="stroke: #000000; stroke-width: 1.0;"/><rect fill="none" height="323.2656" style="stroke: #000000; stroke-width: 2.0;" width="1194" x="13" y="81.5938"/><text fill="#000000" font-family="Courier" font-size="13" font-weight="bold" lengthAdjust="spacingAndGlyphs" textLength="24" x="28" y="94.6606">alt</text><text fill="#000000" font-family="Courier" font-size="11" font-weight="bold" lengthAdjust="spacingAndGlyphs" textLength="112" x="97" y="93.8042">[Browser Engine]</text><polygon fill="#383838" points="690,115.8594,700,119.8594,690,123.8594,694,119.8594" style="stroke: #383838; stroke-width: 1.0;"/><line style="stroke: #383838; stroke-width: 1.0;" x1="86" x2="696" y1="119.8594" y2="119.8594"/><text fill="#000000" font-family="Courier" font-size="13" lengthAdjust="spacingAndGlyphs" textLength="136" x="93" y="114.7935">Browse Categories</text><polygon fill="#383838" points="978,144.9922,988,148.9922,978,152.9922,982,148.9922" style="stroke: #383838; stroke-width: 1.0;"/><line style="stroke: #383838; stroke-width: 1.0;" x1="702" x2="984" y1="148.9922" y2="148.9922"/><text fill="#000000" font-family="Courier" font-size="13" lengthAdjust="spacingAndGlyphs" textLength="128" x="709" y="143.9263">Look Up Category</text><polygon fill="#383838" points="713,174.125,703,178.125,713,182.125,709,178.125" style="stroke: #383838; stroke-width: 1.0;"/><line style="stroke: #383838; stroke-width: 1.0;" x1="707" x2="989" y1="178.125" y2="178.125"/><text fill="#000000" font-family="Courier" font-size="13" lengthAdjust="spacingAndGlyphs" textLength="264" x="719" y="173.0591">Return Products based on Category</text><polygon fill="#383838" points="97,203.2578,87,207.2578,97,211.2578,93,207.2578" style="stroke: #383838; stroke-width: 1.0;"/><line style="stroke: #383838; stroke-width: 1.0;" x1="91" x2="701" y1="207.2578" y2="207.2578"/><text fill="#000000" font-family="Courier" font-size="13" lengthAdjust="spacingAndGlyphs" textLength="200" x="103" y="202.1919">Display Returned Products</text><polygon fill="#383838" points="1106,232.3906,1116,236.3906,1106,240.3906,1110,236.3906" style="stroke: #383838; stroke-width: 1.0;"/><line style="stroke: #383838; stroke-width: 1.0;" x1="702" x2="1112" y1="236.3906" y2="236.3906"/><text fill="#000000" font-family="Courier" font-size="13" lengthAdjust="spacingAndGlyphs" textLength="192" x="709" y="231.3247">Learn from Browse Result</text><line style="stroke: #000000; stroke-width: 1.0; stroke-dasharray: 2.0,2.0;" x1="13" x2="1207" y1="245.3906" y2="245.3906"/><text fill="#000000" font-family="Courier" font-size="11" font-weight="bold" lengthAdjust="spacingAndGlyphs" textLength="105" x="18" y="255.6011">[Search Engine]</text><polygon fill="#383838" points="558,276.3281,568,280.3281,558,284.3281,562,280.3281" style="stroke: #383838; stroke-width: 1.0;"/><line style="stroke: #383838; stroke-width: 1.0;" x1="86" x2="564" y1="280.3281" y2="280.3281"/><text fill="#000000" font-family="Courier" font-size="13" lengthAdjust="spacingAndGlyphs" textLength="112" x="93" y="275.2622">Search Product</text><polygon fill="#383838" points="978,305.4609,988,309.4609,978,313.4609,982,309.4609" style="stroke: #383838; stroke-width: 1.0;"/><line style="stroke: #383838; stroke-width: 1.0;" x1="570" x2="984" y1="309.4609" y2="309.4609"/><text fill="#000000" font-family="Courier" font-size="13" lengthAdjust="spacingAndGlyphs" textLength="128" x="577" y="304.395">Look For Product</text><polygon fill="#383838" points="581,334.5938,571,338.5938,581,342.5938,577,338.5938" style="stroke: #383838; stroke-width: 1.0;"/><line style="stroke: #383838; stroke-width: 1.0;" x1="575" x2="989" y1="338.5938" y2="338.5938"/><text fill="#000000" font-family="Courier" font-size="13" lengthAdjust="spacingAndGlyphs" textLength="192" x="587" y="333.5278">Return Relevant Products</text><polygon fill="#383838" points="97,363.7266,87,367.7266,97,371.7266,93,367.7266" style="stroke: #383838; stroke-width: 1.0;"/><line style="stroke: #383838; stroke-width: 1.0;" x1="91" x2="569" y1="367.7266" y2="367.7266"/><text fill="#000000" font-family="Courier" font-size="13" lengthAdjust="spacingAndGlyphs" textLength="200" x="103" y="362.6606">Display Returned Products</text><polygon fill="#383838" points="1106,392.8594,1116,396.8594,1106,400.8594,1110,396.8594" style="stroke: #383838; stroke-width: 1.0;"/><line style="stroke: #383838; stroke-width: 1.0;" x1="570" x2="1112" y1="396.8594" y2="396.8594"/><text fill="#000000" font-family="Courier" font-size="13" lengthAdjust="spacingAndGlyphs" textLength="192" x="577" y="391.7935">Learn from Search Result</text><polygon fill="#383838" points="1266,428.9922,1276,432.9922,1266,436.9922,1270,432.9922" style="stroke: #383838; stroke-width: 1.0;"/><line style="stroke: #383838; stroke-width: 1.0;" x1="86" x2="1272" y1="432.9922" y2="432.9922"/><text fill="#000000" font-family="Courier" font-size="13" lengthAdjust="spacingAndGlyphs" textLength="264" x="93" y="427.9263">Redirect User to Product Purchase</text></g></svg>